<svg width="256" height="256" viewBox="0 0 32 32" xmlns="http://www.w3.org/2000/svg"><path cx="50" cy="50" style="fill:#188fd1" r="20" d="M22.4 16A6.4 6.4 0 0 1 16 22.4A6.4 6.4 0 0 1 9.6 16A6.4 6.4 0 0 1 22.4 16z"/><path d="M2.72 8.32a15.36 15.36 0 0 1 26.56 0L19.84 9.44A7.68 7.68 0 0 0 8.32 16z" style="fill:#ea3939"/><path d="M16 31.36A15.36 15.36 0 0 1 2.72 8.32L8.32 16a7.68 7.68 0 0 0 11.52 6.56z" style="fill:#4aae48"/><path d="M29.28 8.32A15.36 15.36 0 0 1 16 31.36l3.84 -8.8a7.68 7.68 0 0 0 0 -13.12z" style="fill:#fed14b"/></svg>